<svg id="visual" viewBox="0 0 1920 1080" width="1920" height="1080" xmlns="http://www.w3.org/2000/svg" xmlns:xlink="http://www.w3.org/1999/xlink" version="1.1"><rect x="0" y="0" width="1920" height="1080" fill="#cbd5e1"></rect><path d="M0 634L274 754L549 787L823 733L1097 762L1371 795L1646 756L1920 665L1920 1081L1646 1081L1371 1081L1097 1081L823 1081L549 1081L274 1081L0 1081Z" fill="#ef4444"></path><path d="M0 739L274 852L549 821L823 828L1097 754L1371 816L1646 790L1920 720L1920 1081L1646 1081L1371 1081L1097 1081L823 1081L549 1081L274 1081L0 1081Z" fill="#eb3d3d"></path><path d="M0 846L274 828L549 911L823 905L1097 873L1371 910L1646 854L1920 788L1920 1081L1646 1081L1371 1081L1097 1081L823 1081L549 1081L274 1081L0 1081Z" fill="#e63635"></path><path d="M0 882L274 890L549 894L823 899L1097 929L1371 960L1646 870L1920 946L1920 1081L1646 1081L1371 1081L1097 1081L823 1081L549 1081L274 1081L0 1081Z" fill="#e12e2e"></path><path d="M0 994L274 1004L549 1014L823 1024L1097 1009L1371 948L1646 999L1920 992L1920 1081L1646 1081L1371 1081L1097 1081L823 1081L549 1081L274 1081L0 1081Z" fill="#dc2626"></path></svg>